HIERARCHY
ROOT Hip
{
	OFFSET 0.686472 -0.374686 0.153388
	CHANNELS 6 Xposition Yposition Zposition Xrotation Yrotation Zrotation
	JOINT LowerSpine
	{
		OFFSET -0.002356 0.151130 0.261950
		CHANNELS 6 Xposition Yposition Zposition Xrotation Yrotation Zrotation
		JOINT MiddleSpine
		{
			OFFSET -0.023744 -0.012831 0.235877
			CHANNELS 3 Xrotation Yrotation Zrotation
			JOINT Chest
			{
				OFFSET -0.019090 0.055960 0.293380
				CHANNELS 3 Xrotation Yrotation Zrotation
				JOINT Neck
				{
					OFFSET -0.060043 0.007248 0.658624
					CHANNELS 6 Xposition Yposition Zposition Xrotation Yrotation Zrotation
					JOINT Head
					{
						OFFSET -0.049300 -0.103348 0.369673
						CHANNELS 3 Xrotation Yrotation Zrotation
						End Site
						{
							OFFSET -0.005239 -0.001990 0.053359
						}
					}
				}
				JOINT LClavicle
				{
					OFFSET -0.028321 -0.208168 0.636752
					CHANNELS 6 Xposition Yposition Zposition Xrotation Yrotation Zrotation
					JOINT LShoulder
					{
						OFFSET 0.358374 0.095667 0.126305
						CHANNELS 3 Xrotation Yrotation Zrotation
						JOINT LForearm
						{
							OFFSET 0.817763 -0.111419 0.072963
							CHANNELS 3 Xrotation Yrotation Zrotation
							JOINT LHand
							{
								OFFSET 0.681508 -0.094809 0.065264
								CHANNELS 3 Xrotation Yrotation Zrotation
								JOINT LFinger1
								{
									OFFSET 0.251241 -0.112136 0.046262
									CHANNELS 6 Xposition Yposition Zposition Xrotation Yrotation Zrotation
									JOINT LFinger11
									{
										OFFSET 0.098521 -0.031624 -0.015533
										CHANNELS 3 Xrotation Yrotation Zrotation
										JOINT LFinger12
										{
											OFFSET 0.067258 -0.021593 -0.010607
											CHANNELS 3 Xrotation Yrotation Zrotation
											End Site
											{
												OFFSET 0.050313 -0.015310 -0.010624
											}
										}
									}
								}
								JOINT LFinger2
								{
									OFFSET 0.264472 -0.045514 0.051653
									CHANNELS 6 Xposition Yposition Zposition Xrotation Yrotation Zrotation
									JOINT LFinger21
									{
										OFFSET 0.122159 -0.017006 0.011683
										CHANNELS 3 Xrotation Yrotation Zrotation
										JOINT LFinger22
										{
											OFFSET 0.067713 -0.009415 0.006496
											CHANNELS 3 Xrotation Yrotation Zrotation
											End Site
											{
												OFFSET 0.053085 -0.007701 0.001127
											}
										}
									}
								}
								JOINT LFinger3
								{
									OFFSET 0.260863 0.023324 0.042797
									CHANNELS 6 Xposition Yposition Zposition Xrotation Yrotation Zrotation
									JOINT LFinger31
									{
										OFFSET 0.112312 -0.009075 0.004756
										CHANNELS 3 Xrotation Yrotation Zrotation
										JOINT LFinger32
										{
											OFFSET 0.064000 -0.005159 0.002731
											CHANNELS 3 Xrotation Yrotation Zrotation
											End Site
											{
												OFFSET 0.053388 -0.005074 -0.001596
											}
										}
									}
								}
								JOINT LFinger4
								{
									OFFSET 0.252238 0.070110 0.005960
									CHANNELS 6 Xposition Yposition Zposition Xrotation Yrotation Zrotation
									JOINT LFinger41
									{
										OFFSET 0.072196 0.009106 -0.007638
										CHANNELS 3 Xrotation Yrotation Zrotation
										JOINT LFinger42
										{
											OFFSET 0.052941 0.006686 -0.005585
											CHANNELS 3 Xrotation Yrotation Zrotation
											End Site
											{
												OFFSET 0.052721 0.004348 -0.008958
											}
										}
									}
								}
								JOINT LFinger0
								{
									OFFSET 0.052571 -0.049186 -0.037566
									CHANNELS 6 Xposition Yposition Zposition Xrotation Yrotation Zrotation
									JOINT LFinger01
									{
										OFFSET 0.093810 -0.091487 -0.025919
										CHANNELS 3 Xrotation Yrotation Zrotation
										JOINT LFinger02
										{
											OFFSET 0.062281 -0.057976 -0.019012
											CHANNELS 3 Xrotation Yrotation Zrotation
											End Site
											{
												OFFSET 0.039202 -0.034841 -0.011309
											}
										}
									}
								}
							}
						}
					}
				}
				JOINT RClavicle
				{
					OFFSET -0.146746 -0.190974 0.625766
					CHANNELS 6 Xposition Yposition Zposition Xrotation Yrotation Zrotation
					JOINT RShoulder
					{
						OFFSET -0.333546 0.196154 0.062138
						CHANNELS 3 Xrotation Yrotation Zrotation
						JOINT RForearm
						{
							OFFSET -0.815178 0.125674 -0.078512
							CHANNELS 3 Xrotation Yrotation Zrotation
							JOINT RHand
							{
								OFFSET -0.680708 0.102976 -0.061100
								CHANNELS 3 Xrotation Yrotation Zrotation
								JOINT RFinger1
								{
									OFFSET -0.276718 -0.035480 -0.002710
									CHANNELS 6 Xposition Yposition Zposition Xrotation Yrotation Zrotation
									JOINT RFinger11
									{
										OFFSET -0.098960 -0.002950 -0.033852
										CHANNELS 3 Xrotation Yrotation Zrotation
										JOINT RFinger12
										{
											OFFSET -0.067558 -0.002019 -0.023119
											CHANNELS 3 Xrotation Yrotation Zrotation
											End Site
											{
												OFFSET -0.049815 -0.000772 -0.019913
											}
										}
									}
								}
								JOINT RFinger2
								{
									OFFSET -0.271365 0.032283 0.001947
									CHANNELS 6 Xposition Yposition Zposition Xrotation Yrotation Zrotation
									JOINT RFinger21
									{
										OFFSET -0.122016 0.018447 -0.010964
										CHANNELS 3 Xrotation Yrotation Zrotation
										JOINT RFinger22
										{
											OFFSET -0.067633 0.010240 -0.006060
											CHANNELS 3 Xrotation Yrotation Zrotation
											End Site
											{
												OFFSET -0.052399 0.007614 -0.008658
											}
										}
									}
								}
								JOINT RFinger3
								{
									OFFSET -0.246955 0.097057 -0.004307
									CHANNELS 6 Xposition Yposition Zposition Xrotation Yrotation Zrotation
									JOINT RFinger31
									{
										OFFSET -0.109252 0.023095 -0.015797
										CHANNELS 3 Xrotation Yrotation Zrotation
										JOINT RFinger32
										{
											OFFSET -0.062259 0.013173 -0.008981
											CHANNELS 3 Xrotation Yrotation Zrotation
											End Site
											{
												OFFSET -0.051453 0.010149 -0.011321
											}
										}
									}
								}
								JOINT RFinger4
								{
									OFFSET -0.218996 0.138530 -0.037754
									CHANNELS 6 Xposition Yposition Zposition Xrotation Yrotation Zrotation
									JOINT RFinger41
									{
										OFFSET -0.064088 0.028893 -0.020280
										CHANNELS 3 Xrotation Yrotation Zrotation
										JOINT RFinger42
										{
											OFFSET -0.046997 0.021196 -0.014853
											CHANNELS 3 Xrotation Yrotation Zrotation
											End Site
											{
												OFFSET -0.046840 0.018804 -0.018194
											}
										}
									}
								}
								JOINT RFinger0
								{
									OFFSET -0.056643 -0.033326 -0.047694
									CHANNELS 6 Xposition Yposition Zposition Xrotation Yrotation Zrotation
									JOINT RFinger01
									{
										OFFSET -0.109531 -0.061966 -0.044788
										CHANNELS 3 Xrotation Yrotation Zrotation
										JOINT RFinger02
										{
											OFFSET -0.071614 -0.038535 -0.031429
											CHANNELS 3 Xrotation Yrotation Zrotation
											End Site
											{
												OFFSET -0.044730 -0.022654 -0.019095
											}
										}
									}
								}
							}
						}
					}
				}
			}
		}
	}
	JOINT RThigh
	{
		OFFSET -0.310204 0.068022 0.089387
		CHANNELS 6 Xposition Yposition Zposition Xrotation Yrotation Zrotation
		JOINT RShin
		{
			OFFSET 0.091076 0.012327 -1.205876
			CHANNELS 3 Xrotation Yrotation Zrotation
			JOINT RFoot
			{
				OFFSET 0.110958 0.008979 -1.182102
				CHANNELS 3 Xrotation Yrotation Zrotation
				JOINT RToe
				{
					OFFSET -0.026491 -0.269085 -0.135605
					CHANNELS 3 Xrotation Yrotation Zrotation
					End Site
					{
						OFFSET -0.007606 -0.053099 -0.001117
					}
				}
			}
		}
	}
	JOINT LThigh
	{
		OFFSET 0.295391 -0.019907 0.145572
		CHANNELS 6 Xposition Yposition Zposition Xrotation Yrotation Zrotation
		JOINT LShin
		{
			OFFSET 0.134923 0.005962 -1.201817
			CHANNELS 3 Xrotation Yrotation Zrotation
			JOINT LFoot
			{
				OFFSET 0.110958 0.008980 -1.182101
				CHANNELS 3 Xrotation Yrotation Zrotation
				JOINT LToe
				{
					OFFSET -0.026491 -0.269088 -0.135607
					CHANNELS 3 Xrotation Yrotation Zrotation
					End Site
					{
						OFFSET -0.007606 -0.053099 -0.001117
					}
				}
			}
		}
	}
}
MOTION
Frames: 5
Frame Time: 0.041667
1.169691 -0.519464 2.200198 25.749569 6.388793 3.443987 -0.002356 0.151131 0.261951 -0.000010 -0.000033 -0.000022 0.650612 2.062005 5.817165 1.337650 7.053851 19.372817 -0.060043 0.007248 0.658624 -28.560031 11.574643 2.522867 -2.904024 -1.707234 -0.391056 -0.028321 -0.208168 0.636752 1.710372 12.319886 0.058580 57.750062 13.440875 -63.035454 1.295934 -0.050199 -13.344107 -0.000002 0.000001 -0.000004 0.251240 -0.112136 0.046261 0.000001 0.000000 0.000001 0.000016 -0.000002 0.000026 -0.000001 0.000004 -0.000010 0.264471 -0.045514 0.051653 0.000001 0.000004 -0.000006 0.000003 -0.000001 -0.000012 -0.000001 -0.000006 -0.000026 0.260862 0.023325 0.042797 -0.000000 0.000000 -0.000007 -0.000011 0.000001 -0.000000 0.000003 -0.000001 -0.000009 0.252238 0.070110 0.005960 0.000003 0.000004 -0.000002 -0.000000 -0.000010 -0.000005 -0.000005 -0.000005 0.000002 0.052571 -0.049187 -0.037567 0.000008 -0.000006 -0.000015 -0.000006 -0.000003 0.000010 0.000005 0.000012 -0.000005 -0.146746 -0.190974 0.625766 0.710685 4.900560 0.131272 -27.551293 -34.606728 77.580349 -2.514073 -0.922687 29.661579 -50.936279 -30.856896 14.436211 -0.276717 -0.035480 -0.002711 0.000002 -0.000015 0.000034 -0.000004 0.000010 -0.000082 -0.000009 -0.000003 -0.000146 -0.271365 0.032283 0.001946 -0.000000 -0.000003 0.000038 0.000005 0.000008 -0.000031 0.000000 -0.000013 -0.000006 -0.246956 0.097057 -0.004307 -0.000001 -0.000002 0.000037 0.000011 -0.000014 0.000079 -0.000018 -0.000011 -0.000073 -0.218996 0.138530 -0.037754 -0.000007 0.000012 0.000076 0.000017 0.000012 0.000010 0.000015 0.000011 0.000071 -0.056642 -0.033326 -0.047694 0.000006 0.000002 0.000038 -0.000013 0.000056 -0.000040 -0.000007 0.000012 -0.000020 -0.314679 0.099730 0.153803 -45.719282 -23.749883 -14.656495 -0.098632 0.014325 -0.009134 2.197072 -0.121602 -0.193261 0.000014 0.000124 -0.000013 0.268112 -0.202191 0.190317 -67.443398 12.349975 12.964504 72.219763 -4.207824 10.756598 0.673902 0.363311 -0.867196 -22.629704 3.615921 -1.407058 
1.169691 -0.519464 2.200198 25.749569 6.388793 3.443987 -0.002356 0.151131 0.261951 -0.000010 -0.000033 -0.000022 0.650612 2.062005 5.817165 1.337650 7.053851 19.372817 -0.060043 0.007248 0.658624 -28.560031 11.574643 2.522867 -2.904024 -1.707234 -0.391056 -0.028321 -0.208168 0.636752 1.710372 12.319886 0.058580 57.750062 13.440875 -63.035454 1.295934 -0.050199 -13.344107 -0.000002 0.000001 -0.000004 0.251240 -0.112136 0.046261 0.000001 0.000000 0.000001 0.000016 -0.000002 0.000026 -0.000001 0.000004 -0.000010 0.264471 -0.045514 0.051653 0.000001 0.000004 -0.000006 0.000003 -0.000001 -0.000012 -0.000001 -0.000006 -0.000026 0.260862 0.023325 0.042797 -0.000000 0.000000 -0.000007 -0.000011 0.000001 -0.000000 0.000003 -0.000001 -0.000009 0.252238 0.070110 0.005960 0.000003 0.000004 -0.000002 -0.000000 -0.000010 -0.000005 -0.000005 -0.000005 0.000002 0.052571 -0.049187 -0.037567 0.000008 -0.000006 -0.000015 -0.000006 -0.000003 0.000010 0.000005 0.000012 -0.000005 -0.146746 -0.190974 0.625766 0.710685 4.900560 0.131272 -27.551293 -34.606728 77.580349 -2.514073 -0.922687 29.661579 -50.936279 -30.856896 14.436211 -0.276717 -0.035480 -0.002711 0.000002 -0.000015 0.000034 -0.000004 0.000010 -0.000082 -0.000009 -0.000003 -0.000146 -0.271365 0.032283 0.001946 -0.000000 -0.000003 0.000038 0.000005 0.000008 -0.000031 0.000000 -0.000013 -0.000006 -0.246956 0.097057 -0.004307 -0.000001 -0.000002 0.000037 0.000011 -0.000014 0.000079 -0.000018 -0.000011 -0.000073 -0.218996 0.138530 -0.037754 -0.000007 0.000012 0.000076 0.000017 0.000012 0.000010 0.000015 0.000011 0.000071 -0.056642 -0.033326 -0.047694 0.000006 0.000002 0.000038 -0.000013 0.000056 -0.000040 -0.000007 0.000012 -0.000020 -0.314679 0.099730 0.153803 -45.719282 -23.749883 -14.656495 -0.098632 0.014325 -0.009134 2.197072 -0.121602 -0.193261 0.000014 0.000124 -0.000013 0.268112 -0.202191 0.190317 -67.443398 12.349975 12.964504 72.219763 -4.207824 10.756598 0.673902 0.363311 -0.867196 -22.629704 3.615921 -1.407058 
1.167634 -0.520732 2.199439 25.675757 6.171333 3.279685 -0.002356 0.151130 0.261950 -0.000012 -0.000032 -0.000022 0.629008 2.117171 5.970667 1.204890 7.257513 19.903542 -0.060043 0.007247 0.658624 -27.904711 11.318235 2.392669 -3.631183 -2.049742 -0.496898 -0.028321 -0.208169 0.636752 1.706480 12.475095 0.051483 58.546326 12.180305 -62.720111 1.195357 -0.029109 -12.284825 -0.000007 0.000001 -0.000006 0.251240 -0.112137 0.046261 0.000004 0.000000 0.000001 0.000015 -0.000001 0.000026 -0.000003 0.000003 -0.000010 0.264471 -0.045515 0.051653 0.000000 0.000003 -0.000006 -0.000004 -0.000001 -0.000012 0.000006 -0.000006 -0.000026 0.260862 0.023324 0.042797 0.000005 -0.000001 -0.000006 -0.000002 0.000001 0.000001 0.000001 -0.000001 -0.000011 0.252238 0.070110 0.005959 0.000006 0.000004 -0.000001 0.000005 -0.000010 -0.000006 -0.000002 -0.000005 0.000002 0.052571 -0.049187 -0.037567 0.000015 -0.000003 -0.000010 -0.000005 0.000000 0.000009 0.000003 0.000015 -0.000007 -0.146746 -0.190974 0.625767 0.704861 4.819186 0.159434 -27.645209 -35.161052 76.903470 -2.509813 -0.919898 29.603317 -50.936248 -30.856899 14.436226 -0.276717 -0.035480 -0.002711 0.000005 -0.000016 0.000030 -0.000008 0.000008 -0.000084 -0.000010 -0.000003 -0.000146 -0.271365 0.032283 0.001946 0.000002 -0.000004 0.000038 0.000003 0.000006 -0.000035 -0.000001 -0.000013 -0.000006 -0.246956 0.097057 -0.004307 0.000001 -0.000002 0.000038 0.000012 -0.000013 0.000082 -0.000018 -0.000011 -0.000073 -0.218997 0.138530 -0.037754 -0.000004 0.000011 0.000075 0.000013 0.000013 0.000012 0.000015 0.000012 0.000071 -0.056642 -0.033327 -0.047695 0.000003 0.000000 0.000039 -0.000013 0.000058 -0.000044 -0.000003 0.000009 -0.000018 -0.314678 0.099730 0.153803 -45.482984 -23.916029 -14.327572 -0.124793 0.018122 -0.011554 2.548710 0.093001 -0.716376 0.000020 0.000123 -0.000009 0.268068 -0.202073 0.190557 -67.070306 12.530624 12.958155 72.069882 -4.214310 10.731856 1.428708 0.609039 -1.534400 -23.193741 3.711899 -1.423432 
1.166711 -0.520970 2.198883 25.643986 6.052216 3.153838 -0.002356 0.151131 0.261950 -0.000015 -0.000033 -0.000022 0.603530 2.167318 6.031612 1.111396 7.380667 20.098373 -0.060043 0.007248 0.658624 -27.555754 11.126256 2.292858 -3.839692 -2.108032 -0.525252 -0.028321 -0.208168 0.636752 1.700213 12.550302 0.047141 58.673360 12.389902 -62.227012 1.214881 -0.034625 -12.504359 -0.000009 0.000001 -0.000005 0.251240 -0.112136 0.046262 0.000006 -0.000001 0.000003 0.000015 -0.000003 0.000030 0.000002 0.000001 -0.000010 0.264471 -0.045515 0.051653 -0.000001 0.000004 -0.000005 -0.000001 -0.000000 -0.000012 0.000001 -0.000007 -0.000026 0.260862 0.023325 0.042798 0.000005 0.000000 -0.000006 -0.000006 0.000001 0.000000 0.000002 -0.000002 -0.000011 0.252238 0.070110 0.005960 0.000005 0.000005 -0.000003 0.000003 -0.000009 -0.000007 -0.000006 -0.000007 0.000002 0.052571 -0.049187 -0.037566 0.000012 0.000000 -0.000015 -0.000007 -0.000002 0.000009 0.000005 0.000013 -0.000005 -0.146746 -0.190974 0.625767 0.702380 4.776665 0.176768 -27.610036 -35.414473 76.695969 -2.500329 -0.913537 29.472096 -50.936252 -30.856906 14.436255 -0.276717 -0.035481 -0.002710 0.000027 -0.000020 0.000014 -0.000005 0.000010 -0.000083 -0.000010 -0.000005 -0.000146 -0.271365 0.032283 0.001946 0.000001 -0.000005 0.000036 0.000005 0.000007 -0.000031 -0.000002 -0.000013 -0.000006 -0.246956 0.097056 -0.004307 0.000000 -0.000003 0.000037 0.000011 -0.000013 0.000079 -0.000019 -0.000010 -0.000073 -0.218997 0.138529 -0.037754 -0.000005 0.000009 0.000073 0.000014 0.000012 0.000010 0.000014 0.000011 0.000075 -0.056642 -0.033327 -0.047695 0.000005 -0.000002 0.000037 -0.000013 0.000056 -0.000039 -0.000007 0.000009 -0.000019 -0.314679 0.099730 0.153803 -45.448779 -23.974507 -14.254498 -0.001577 0.000222 -0.000144 2.689773 0.129788 -0.824722 0.000029 0.000123 -0.000012 0.267993 -0.201876 0.190957 -66.939740 12.586772 12.854831 72.046188 -4.215328 10.727946 1.968770 0.843065 -2.144640 -23.475497 3.759901 -1.431252 
1.166388 -0.520825 2.198357 25.624908 5.965750 3.046940 -0.002356 0.151131 0.261950 -0.000013 -0.000032 -0.000023 0.584056 2.211187 6.047037 1.051672 7.477877 20.139398 -0.060043 0.007247 0.658624 -27.379954 11.020790 2.238147 -3.875732 -2.058698 -0.525978 -0.028321 -0.208168 0.636752 1.694145 12.612440 0.043394 58.494990 13.399661 -61.522908 1.308257 -0.057233 -13.514164 -0.000001 0.000001 -0.000006 0.251240 -0.112137 0.046262 0.000003 -0.000000 0.000003 0.000017 -0.000001 0.000030 -0.000004 0.000003 -0.000010 0.264471 -0.045515 0.051653 -0.000003 0.000004 -0.000006 0.000001 -0.000001 -0.000012 0.000001 -0.000006 -0.000027 0.260862 0.023325 0.042798 -0.000001 0.000000 -0.000007 -0.000008 0.000001 -0.000000 0.000006 -0.000002 -0.000010 0.252238 0.070110 0.005960 0.000003 0.000004 -0.000002 0.000004 -0.000008 -0.000004 -0.000002 -0.000004 0.000002 0.052571 -0.049187 -0.037566 0.000009 0.000001 -0.000015 -0.000002 0.000001 0.000011 0.000003 0.000016 -0.000006 -0.146746 -0.190974 0.625766 0.702252 4.758917 0.188618 -27.464346 -35.446500 76.764202 -2.488687 -0.905494 29.308861 -50.936180 -30.856910 14.436310 -0.276717 -0.035480 -0.002710 0.000079 -0.000002 -0.000017 -0.000006 0.000011 -0.000082 -0.000010 -0.000003 -0.000146 -0.271365 0.032283 0.001946 0.000001 -0.000005 0.000035 0.000003 0.000008 -0.000032 -0.000002 -0.000013 -0.000006 -0.246956 0.097057 -0.004306 -0.000000 -0.000004 0.000034 0.000010 -0.000013 0.000082 -0.000019 -0.000010 -0.000073 -0.218997 0.138530 -0.037754 -0.000005 0.000010 0.000075 0.000013 0.000013 0.000010 0.000015 0.000012 0.000070 -0.056642 -0.033326 -0.047694 0.000003 -0.000001 0.000036 -0.000016 0.000054 -0.000038 -0.000009 0.000015 -0.000017 -0.314679 0.099730 0.153804 -45.393977 -23.992136 -14.284155 0.048511 -0.007051 0.004503 2.701382 0.026797 -0.610634 0.000047 0.000126 -0.000006 0.267886 -0.201600 0.191520 -66.880304 12.652077 12.685423 72.066788 -4.214445 10.731343 2.408939 0.990332 -2.561405 -23.706065 3.799212 -1.437480 
